# xmcd
#
# Track frame offsets: 
#        150
#        15152
#        28770
#        43521
#
# Disc length: 792 seconds
#
# Revision: 2
# Processed by: cddbd v1.5.2PL0 Copyright (c) Steve Scherf et al.
# Submitted via: ExactAudioCopy v1.0b3
#
DISCID=21031604
DTITLE=The Ballroom Thieves - Ballroom Thieves
DYEAR=2013
DGENRE=Blues Pop
TTITLE0=Down by the River
TTITLE1=Droves
TTITLE2=Coward's Son
TTITLE3=Armada
EXTD=
EXTT0=
EXTT1=
EXTT2=
EXTT3=
PLAYORDER=
